<svg xmlns="http://www.w3.org/2000/svg" viewBox="0 0 1100 400" width="100%" height="100%">
    <defs>
        <style>
            @import url('https://fonts.googleapis.com/css2?family=Montserrat:wght@300;400;600;700&amp;display=swap');
        </style>
        <linearGradient id="goldGrad_1" x1="0%" y1="0%" x2="100%" y2="100%">
            <stop offset="0%" stop-color="#D4AF37"/>
            <stop offset="35%" stop-color="#F5C542"/>
            <stop offset="70%" stop-color="#D4AF37"/>
            <stop offset="100%" stop-color="#B8860B"/>
        </linearGradient>
        <mask id="barCutout_1">
            <rect width="100%" height="100%" fill="white"/>
            <line x1="135" y1="235" x2="235" y2="135" stroke="black" stroke-width="22" stroke-linecap="round"/>
            <polygon points="250,120 250,150 220,120" fill="black" stroke="black" stroke-width="8" stroke-linejoin="round"/>
        </mask>
        <path id="ray_1" d="M 200 85 C 186 70, 188 40, 200 20 C 212 40, 214 70, 200 85 Z" fill="url(#goldGrad_1)"/>
    </defs>
    
    <g id="rays_1">
        <use href="#ray_1" transform="rotate(0 200 200)" />
        <use href="#ray_1" transform="rotate(15 200 200)" />
        <use href="#ray_1" transform="rotate(30 200 200)" />
        <use href="#ray_1" transform="rotate(45 200 200)" />
        <use href="#ray_1" transform="rotate(60 200 200)" />
        <use href="#ray_1" transform="rotate(75 200 200)" />
        <use href="#ray_1" transform="rotate(90 200 200)" />
        <use href="#ray_1" transform="rotate(105 200 200)" />
        <use href="#ray_1" transform="rotate(120 200 200)" />
        <use href="#ray_1" transform="rotate(135 200 200)" />
        <use href="#ray_1" transform="rotate(150 200 200)" />
        <use href="#ray_1" transform="rotate(165 200 200)" />
        <use href="#ray_1" transform="rotate(180 200 200)" />
        <use href="#ray_1" transform="rotate(195 200 200)" />
        <use href="#ray_1" transform="rotate(210 200 200)" />
        <use href="#ray_1" transform="rotate(225 200 200)" />
        <use href="#ray_1" transform="rotate(240 200 200)" />
        <use href="#ray_1" transform="rotate(255 200 200)" />
        <use href="#ray_1" transform="rotate(270 200 200)" />
        <use href="#ray_1" transform="rotate(285 200 200)" />
        <use href="#ray_1" transform="rotate(300 200 200)" />
        <use href="#ray_1" transform="rotate(315 200 200)" />
        <use href="#ray_1" transform="rotate(330 200 200)" />
        <use href="#ray_1" transform="rotate(345 200 200)" />
    </g>
    <g mask="url(#barCutout_1)" fill="url(#goldGrad_1)">
        <rect x="157" y="210" width="22" height="50" rx="2" />
        <rect x="189" y="175" width="22" height="85" rx="2" />
        <rect x="221" y="140" width="22" height="120" rx="2" />
    </g>
    <line x1="140" y1="230" x2="235" y2="135" stroke="url(#goldGrad_1)" stroke-width="12" stroke-linecap="round"/>
    <polygon points="250,120 250,150 220,120" fill="url(#goldGrad_1)"/>
    <text x="390" y="215" font-family="'Montserrat', 'Segoe UI', sans-serif" font-size="76" font-weight="700" letter-spacing="0.1em" fill="url(#goldGrad_1)">AVCDHANAM</text>
    <text x="395" y="260" font-family="'Montserrat', 'Segoe UI', sans-serif" font-size="20" font-weight="300" letter-spacing="0.35em" fill="url(#goldGrad_1)">SOLUTIONS PRIVATE LIMITED</text>
</svg>
